<svg id="svg" version="1.1" width="400" height="400" viewBox="0 0 400 400" xmlns="http://www.w3.org/2000/svg" xmlns:xlink="http://www.w3.org/1999/xlink" ><g id="svgg"><path id="path0" d="M186.200 0.204 C 137.115 3.249,98.014 20.104,62.250 53.635 C 16.617 96.419,-4.635 152.840,0.714 217.000 C 5.069 269.217,29.126 314.887,71.100 350.618 C 106.767 380.980,149.542 396.386,198.200 396.394 C 252.578 396.403,299.253 377.227,337.727 339.068 C 377.667 299.456,397.414 250.742,396.330 194.500 C 395.278 139.905,375.859 94.757,336.972 56.500 C 302.405 22.493,262.945 4.459,214.400 0.481 C 209.918 0.113,190.698 -0.076,186.200 0.204 M206.800 8.201 C 256.191 10.300,297.615 28.559,332.701 63.694 C 369.332 100.376,387.505 143.548,388.143 195.403 C 388.811 249.706,370.655 294.562,332.608 332.608 C 295.244 369.973,251.110 388.213,198.100 388.198 C 145.334 388.183,101.131 369.968,63.904 332.900 C 25.771 294.929,6.975 248.299,8.075 194.400 C 9.132 142.635,27.194 100.179,63.687 63.687 C 102.914 24.459,150.970 5.827,206.800 8.201 M187.100 39.228 C 149.303 41.704,117.077 55.773,89.300 81.924 C 53.594 115.541,36.298 159.104,39.186 208.146 C 41.844 253.276,61.610 291.707,97.600 321.721 C 132.961 351.210,179.278 363.116,227.000 354.983 C 290.467 344.166,343.481 291.504,354.796 228.035 C 362.813 183.064,352.703 138.398,326.696 103.900 C 292.609 58.681,242.748 35.582,187.100 39.228 M205.300 51.601 C 283.870 55.709,344.648 119.497,344.695 197.900 C 344.754 298.313,247.270 368.800,151.800 337.374 C 57.083 306.196,20.818 190.106,80.803 110.100 C 110.016 71.137,156.970 49.074,205.300 51.601 M129.550 99.941 C 129.797 99.989,130.203 99.989,130.450 99.941 C 130.697 99.893,130.495 99.854,130.000 99.854 C 129.505 99.854,129.303 99.893,129.550 99.941 M152.950 99.950 C 157.708 99.980,165.493 99.980,170.250 99.950 C 175.008 99.920,171.115 99.896,161.600 99.896 C 152.085 99.896,148.193 99.920,152.950 99.950 M208.952 100.141 C 209.201 100.189,209.561 100.187,209.752 100.137 C 209.944 100.087,209.740 100.048,209.300 100.050 C 208.860 100.053,208.704 100.094,208.952 100.141 M224.200 105.300 C 224.573 105.685,224.923 106.000,224.978 106.000 C 225.033 106.000,224.773 105.685,224.400 105.300 C 224.027 104.915,223.677 104.600,223.622 104.600 C 223.567 104.600,223.827 104.915,224.200 105.300 M114.392 128.450 C 114.882 128.972,115.310 129.400,115.342 129.400 C 115.492 129.400,115.333 129.220,114.450 128.392 L 113.500 127.500 114.392 128.450 M224.091 128.650 L 223.300 129.500 224.150 128.709 C 224.940 127.974,225.092 127.800,224.941 127.800 C 224.908 127.800,224.525 128.183,224.091 128.650 M135.564 133.950 C 138.680 133.981,143.720 133.981,146.764 133.950 C 149.809 133.919,147.260 133.893,141.100 133.893 C 134.940 133.893,132.449 133.919,135.564 133.950 M186.293 134.050 C 186.240 134.188,186.221 164.135,186.249 200.600 L 186.301 266.900 186.350 200.452 L 186.400 134.003 197.650 133.950 L 208.900 133.897 197.644 133.848 C 188.787 133.810,186.367 133.853,186.293 134.050 M264.692 216.650 L 263.700 217.700 264.750 216.708 C 265.726 215.785,265.892 215.600,265.742 215.600 C 265.711 215.600,265.238 216.072,264.692 216.650 M293.250 231.500 C 293.253 231.940,293.294 232.096,293.341 231.848 C 293.389 231.599,293.387 231.239,293.337 231.048 C 293.287 230.856,293.248 231.060,293.250 231.500 M259.495 250.200 C 259.495 259.385,259.520 263.143,259.550 258.550 C 259.580 253.958,259.580 246.443,259.550 241.850 C 259.520 237.258,259.495 241.015,259.495 250.200 M171.550 300.750 C 193.907 300.778,230.492 300.778,252.850 300.750 C 275.207 300.722,256.915 300.699,212.200 300.699 C 167.485 300.699,149.192 300.722,171.550 300.750 " stroke="none" fill="#c9c9c9" fill-rule="evenodd"></path><path id="path1" d="M128.800 100.028 C 116.545 100.802,110.080 106.672,110.108 117.000 C 110.129 124.830,114.468 130.607,121.822 132.597 C 125.740 133.657,125.880 133.667,139.500 133.787 L 152.300 133.900 152.350 200.335 L 152.401 266.771 139.850 266.860 C 126.716 266.954,125.626 267.020,122.315 267.934 C 114.485 270.095,109.994 275.859,110.002 283.738 C 110.009 291.392,114.354 297.165,121.710 299.297 C 126.202 300.599,118.477 300.490,210.250 300.550 L 293.400 300.604 293.400 266.942 C 293.400 231.712,293.361 229.908,292.516 225.772 C 290.940 218.068,286.592 213.507,279.670 212.300 C 270.810 210.755,263.312 215.307,260.903 223.694 C 259.704 227.868,259.726 227.432,259.651 247.950 L 259.581 266.800 222.890 266.800 L 186.199 266.800 186.250 200.350 L 186.300 133.900 199.200 133.787 C 212.930 133.667,213.056 133.658,216.978 132.597 C 232.446 128.412,232.949 106.319,217.685 101.535 C 215.343 100.801,213.264 100.449,209.886 100.215 C 206.525 99.983,132.234 99.812,128.800 100.028 " stroke="none" fill="#ffffff" fill-rule="evenodd"></path><path id="path2" d="M186.400 8.424 C 138.454 11.161,98.070 29.356,63.705 63.703 C 25.763 101.627,7.594 146.629,8.259 201.038 C 8.893 252.929,27.072 295.961,63.883 332.707 C 97.323 366.088,136.432 384.200,182.400 387.594 C 236.659 391.601,284.812 375.739,323.625 341.075 C 366.449 302.828,388.237 254.585,388.196 198.100 C 388.157 144.876,369.133 99.543,331.233 62.365 C 291.621 23.508,242.518 5.221,186.400 8.424 M211.322 39.291 C 247.891 42.173,278.488 55.583,305.800 80.698 C 335.565 108.069,353.115 142.799,356.686 181.400 C 361.647 235.023,343.352 282.031,303.717 317.500 C 273.682 344.378,239.483 357.289,198.300 357.298 C 150.127 357.308,109.401 338.819,77.789 302.588 C 51.458 272.409,38.900 238.652,38.916 198.100 C 38.934 152.408,55.445 114.014,88.656 82.437 C 117.792 54.735,149.724 41.209,191.400 38.918 C 194.312 38.758,207.755 39.010,211.322 39.291 " stroke="none" fill="#2b2b2a" fill-rule="evenodd"></path><path id="path3" d="M195.162 8.150 C 196.847 8.183,199.547 8.183,201.162 8.150 C 202.778 8.116,201.400 8.089,198.100 8.089 C 194.800 8.089,193.478 8.116,195.162 8.150 M187.554 8.345 C 187.913 8.389,188.453 8.389,188.754 8.343 C 189.054 8.297,188.760 8.261,188.100 8.262 C 187.440 8.263,187.194 8.300,187.554 8.345 M207.650 8.343 C 207.953 8.389,208.447 8.389,208.750 8.343 C 209.053 8.297,208.805 8.260,208.200 8.260 C 207.595 8.260,207.347 8.297,207.650 8.343 M183.950 8.541 C 184.197 8.589,184.603 8.589,184.850 8.541 C 185.097 8.493,184.895 8.454,184.400 8.454 C 183.905 8.454,183.703 8.493,183.950 8.541 M211.453 8.544 C 211.757 8.589,212.207 8.588,212.453 8.541 C 212.699 8.493,212.450 8.456,211.900 8.457 C 211.350 8.459,211.149 8.498,211.453 8.544 M181.450 8.738 C 181.643 8.788,181.958 8.788,182.150 8.738 C 182.343 8.688,182.185 8.646,181.800 8.646 C 181.415 8.646,181.258 8.688,181.450 8.738 M178.850 8.938 C 179.043 8.988,179.358 8.988,179.550 8.938 C 179.743 8.888,179.585 8.846,179.200 8.846 C 178.815 8.846,178.658 8.888,178.850 8.938 M216.850 8.938 C 217.043 8.988,217.357 8.988,217.550 8.938 C 217.743 8.888,217.585 8.846,217.200 8.846 C 216.815 8.846,216.657 8.888,216.850 8.938 M195.350 38.950 C 196.918 38.983,199.483 38.983,201.050 38.950 C 202.618 38.916,201.335 38.888,198.200 38.888 C 195.065 38.888,193.783 38.916,195.350 38.950 M188.350 39.141 C 188.597 39.189,189.003 39.189,189.250 39.141 C 189.498 39.093,189.295 39.054,188.800 39.054 C 188.305 39.054,188.103 39.093,188.350 39.141 M207.053 39.144 C 207.357 39.189,207.807 39.188,208.053 39.141 C 208.299 39.093,208.050 39.056,207.500 39.057 C 206.950 39.059,206.749 39.098,207.053 39.144 M185.152 39.341 C 185.401 39.389,185.761 39.387,185.952 39.337 C 186.144 39.287,185.940 39.248,185.500 39.250 C 185.060 39.253,184.904 39.294,185.152 39.341 M210.450 39.338 C 210.643 39.388,210.957 39.388,211.150 39.338 C 211.343 39.288,211.185 39.246,210.800 39.246 C 210.415 39.246,210.257 39.288,210.450 39.338 M182.650 39.538 C 182.843 39.588,183.158 39.588,183.350 39.538 C 183.543 39.488,183.385 39.446,183.000 39.446 C 182.615 39.446,182.458 39.488,182.650 39.538 M213.050 39.538 C 213.243 39.588,213.558 39.588,213.750 39.538 C 213.943 39.488,213.785 39.446,213.400 39.446 C 213.015 39.446,212.857 39.488,213.050 39.538 M193.552 51.541 C 193.801 51.589,194.161 51.587,194.352 51.537 C 194.544 51.487,194.340 51.448,193.900 51.450 C 193.460 51.453,193.304 51.494,193.552 51.541 M202.050 51.538 C 202.243 51.588,202.558 51.588,202.750 51.538 C 202.942 51.488,202.785 51.446,202.400 51.446 C 202.015 51.446,201.858 51.488,202.050 51.538 M70.389 57.150 L 69.700 57.900 70.450 57.211 C 70.862 56.832,71.200 56.494,71.200 56.461 C 71.200 56.308,71.031 56.452,70.389 57.150 M327.192 58.450 C 328.020 59.333,328.200 59.492,328.200 59.342 C 328.200 59.310,327.773 58.882,327.250 58.392 L 326.300 57.500 327.192 58.450 M66.895 60.450 L 65.500 61.900 66.950 60.505 C 68.297 59.210,68.491 59.000,68.345 59.000 C 68.314 59.000,67.662 59.653,66.895 60.450 M332.500 63.600 C 333.927 65.030,335.139 66.200,335.194 66.200 C 335.249 66.200,334.127 65.030,332.700 63.600 C 331.273 62.170,330.061 61.000,330.006 61.000 C 329.951 61.000,331.073 62.170,332.500 63.600 M60.295 67.050 L 58.900 68.500 60.350 67.105 C 61.697 65.810,61.891 65.600,61.745 65.600 C 61.714 65.600,61.062 66.252,60.295 67.050 M337.700 69.000 C 338.130 69.440,338.526 69.800,338.581 69.800 C 338.636 69.800,338.330 69.440,337.900 69.000 C 337.470 68.560,337.074 68.200,337.019 68.200 C 336.964 68.200,337.270 68.560,337.700 69.000 M56.989 70.550 L 56.300 71.300 57.050 70.611 C 57.463 70.232,57.800 69.894,57.800 69.861 C 57.800 69.708,57.631 69.852,56.989 70.550 M341.200 72.863 C 341.200 72.897,341.493 73.190,341.850 73.513 L 342.500 74.100 341.913 73.450 C 341.365 72.844,341.200 72.708,341.200 72.863 M302.400 77.663 C 302.400 77.697,302.693 77.990,303.050 78.313 L 303.700 78.900 303.113 78.250 C 302.565 77.644,302.400 77.508,302.400 77.663 M305.000 80.100 C 305.373 80.485,305.723 80.800,305.778 80.800 C 305.833 80.800,305.573 80.485,305.200 80.100 C 304.827 79.715,304.477 79.400,304.422 79.400 C 304.367 79.400,304.627 79.715,305.000 80.100 M89.891 81.250 L 89.100 82.100 89.950 81.309 C 90.740 80.574,90.892 80.400,90.741 80.400 C 90.708 80.400,90.325 80.783,89.891 81.250 M310.600 85.500 C 312.633 87.535,314.341 89.200,314.396 89.200 C 314.451 89.200,312.833 87.535,310.800 85.500 C 308.767 83.465,307.059 81.800,307.004 81.800 C 306.949 81.800,308.567 83.465,310.600 85.500 M85.492 85.450 L 84.500 86.500 85.550 85.508 C 86.127 84.962,86.600 84.489,86.600 84.458 C 86.600 84.308,86.415 84.474,85.492 85.450 M81.091 90.050 L 80.300 90.900 81.150 90.109 C 81.940 89.374,82.092 89.200,81.941 89.200 C 81.908 89.200,81.525 89.583,81.091 90.050 M316.200 91.300 C 316.573 91.685,316.923 92.000,316.978 92.000 C 317.033 92.000,316.773 91.685,316.400 91.300 C 316.027 90.915,315.677 90.600,315.622 90.600 C 315.567 90.600,315.827 90.915,316.200 91.300 M78.887 92.450 L 78.300 93.100 78.950 92.513 C 79.556 91.965,79.692 91.800,79.537 91.800 C 79.503 91.800,79.210 92.093,78.887 92.450 M94.189 94.550 L 93.500 95.300 94.250 94.611 C 94.663 94.232,95.000 93.894,95.000 93.861 C 95.000 93.708,94.831 93.852,94.189 94.550 M181.650 99.950 C 183.273 99.983,185.928 99.983,187.550 99.950 C 189.173 99.916,187.845 99.888,184.600 99.888 C 181.355 99.888,180.028 99.916,181.650 99.950 M109.850 116.900 C 109.853 117.340,109.894 117.496,109.941 117.248 C 109.989 116.999,109.987 116.639,109.937 116.448 C 109.887 116.256,109.848 116.460,109.850 116.900 M152.250 200.248 L 152.200 266.596 142.150 266.650 L 132.100 266.704 142.156 266.752 C 150.053 266.790,152.233 266.746,152.307 266.550 C 152.360 266.413,152.379 236.510,152.351 200.100 L 152.299 133.900 152.250 200.248 M8.846 179.200 C 8.846 179.585,8.888 179.743,8.938 179.550 C 8.988 179.358,8.988 179.043,8.938 178.850 C 8.888 178.658,8.846 178.815,8.846 179.200 M387.450 180.500 C 387.453 180.940,387.494 181.096,387.541 180.848 C 387.589 180.599,387.587 180.239,387.537 180.048 C 387.487 179.856,387.448 180.060,387.450 180.500 M8.646 181.600 C 8.646 181.985,8.688 182.143,8.738 181.950 C 8.788 181.758,8.788 181.442,8.738 181.250 C 8.688 181.058,8.646 181.215,8.646 181.600 M39.446 183.000 C 39.446 183.385,39.488 183.543,39.538 183.350 C 39.588 183.158,39.588 182.843,39.538 182.650 C 39.488 182.458,39.446 182.615,39.446 183.000 M387.650 183.100 C 387.653 183.540,387.694 183.696,387.741 183.448 C 387.789 183.199,387.787 182.839,387.737 182.648 C 387.687 182.456,387.648 182.660,387.650 183.100 M8.457 184.500 C 8.459 185.050,8.498 185.251,8.544 184.947 C 8.589 184.643,8.588 184.193,8.541 183.947 C 8.493 183.701,8.456 183.950,8.457 184.500 M356.846 184.400 C 356.846 184.785,356.888 184.942,356.938 184.750 C 356.988 184.558,356.988 184.243,356.938 184.050 C 356.888 183.858,356.846 184.015,356.846 184.400 M39.250 185.500 C 39.253 185.940,39.294 186.096,39.341 185.848 C 39.389 185.599,39.387 185.239,39.337 185.048 C 39.287 184.856,39.248 185.060,39.250 185.500 M387.854 186.400 C 387.854 186.895,387.893 187.097,387.941 186.850 C 387.989 186.603,387.989 186.197,387.941 185.950 C 387.893 185.703,387.854 185.905,387.854 186.400 M357.054 187.200 C 357.054 187.695,357.093 187.898,357.141 187.650 C 357.189 187.403,357.189 186.998,357.141 186.750 C 357.093 186.503,357.054 186.705,357.054 187.200 M8.262 188.100 C 8.263 188.760,8.300 189.006,8.345 188.646 C 8.389 188.287,8.389 187.747,8.343 187.446 C 8.297 187.146,8.261 187.440,8.262 188.100 M39.054 188.800 C 39.054 189.295,39.093 189.498,39.141 189.250 C 39.189 189.003,39.189 188.597,39.141 188.350 C 39.093 188.103,39.054 188.305,39.054 188.800 M388.069 191.100 C 388.069 191.980,388.104 192.315,388.147 191.845 C 388.189 191.374,388.188 190.654,388.145 190.245 C 388.102 189.835,388.068 190.220,388.069 191.100 M357.269 191.300 C 357.269 192.180,357.304 192.515,357.347 192.045 C 357.389 191.574,357.388 190.854,357.345 190.445 C 357.302 190.035,357.268 190.420,357.269 191.300 M344.646 191.400 C 344.646 191.785,344.688 191.942,344.738 191.750 C 344.788 191.558,344.788 191.243,344.738 191.050 C 344.688 190.858,344.646 191.015,344.646 191.400 M8.089 198.100 C 8.089 201.400,8.116 202.778,8.150 201.162 C 8.183 199.547,8.183 196.847,8.150 195.162 C 8.116 193.478,8.089 194.800,8.089 198.100 M38.888 198.100 C 38.888 201.290,38.916 202.567,38.950 200.938 C 38.983 199.309,38.983 196.699,38.949 195.138 C 38.916 193.577,38.888 194.910,38.888 198.100 M51.450 193.900 C 51.453 194.340,51.494 194.496,51.541 194.248 C 51.589 193.999,51.587 193.639,51.537 193.448 C 51.487 193.256,51.448 193.460,51.450 193.900 M51.446 202.400 C 51.446 202.785,51.488 202.942,51.538 202.750 C 51.588 202.558,51.588 202.243,51.538 202.050 C 51.488 201.858,51.446 202.015,51.446 202.400 M357.267 205.000 C 357.267 205.825,357.303 206.163,357.346 205.750 C 357.389 205.338,357.389 204.663,357.346 204.250 C 357.303 203.838,357.267 204.175,357.267 205.000 M388.069 205.300 C 388.069 206.180,388.104 206.515,388.147 206.045 C 388.189 205.574,388.188 204.854,388.145 204.445 C 388.102 204.035,388.068 204.420,388.069 205.300 M344.646 204.800 C 344.646 205.185,344.688 205.343,344.738 205.150 C 344.788 204.957,344.788 204.643,344.738 204.450 C 344.688 204.258,344.646 204.415,344.646 204.800 M39.057 207.500 C 39.059 208.050,39.098 208.251,39.144 207.947 C 39.189 207.643,39.188 207.193,39.141 206.947 C 39.093 206.701,39.056 206.950,39.057 207.500 M8.262 208.100 C 8.263 208.760,8.300 209.006,8.345 208.646 C 8.389 208.287,8.389 207.747,8.343 207.446 C 8.297 207.146,8.261 207.440,8.262 208.100 M357.057 209.100 C 357.059 209.650,357.098 209.851,357.144 209.547 C 357.189 209.243,357.188 208.793,357.141 208.547 C 357.093 208.301,357.056 208.550,357.057 209.100 M387.857 209.900 C 387.859 210.450,387.898 210.651,387.944 210.347 C 387.989 210.043,387.988 209.593,387.941 209.347 C 387.893 209.101,387.856 209.350,387.857 209.900 M39.246 210.800 C 39.246 211.185,39.288 211.343,39.338 211.150 C 39.388 210.957,39.388 210.643,39.338 210.450 C 39.288 210.257,39.246 210.415,39.246 210.800 M8.457 211.900 C 8.459 212.450,8.498 212.651,8.544 212.347 C 8.589 212.043,8.588 211.593,8.541 211.347 C 8.493 211.101,8.456 211.350,8.457 211.900 M356.846 212.000 C 356.846 212.385,356.888 212.543,356.938 212.350 C 356.988 212.157,356.988 211.843,356.938 211.650 C 356.888 211.457,356.846 211.615,356.846 212.000 M387.646 213.200 C 387.646 213.585,387.688 213.743,387.738 213.550 C 387.788 213.357,387.788 213.043,387.738 212.850 C 387.688 212.657,387.646 212.815,387.646 213.200 M39.446 213.400 C 39.446 213.785,39.488 213.943,39.538 213.750 C 39.588 213.558,39.588 213.243,39.538 213.050 C 39.488 212.857,39.446 213.015,39.446 213.400 M8.646 214.600 C 8.646 214.985,8.688 215.143,8.738 214.950 C 8.788 214.757,8.788 214.443,8.738 214.250 C 8.688 214.058,8.646 214.215,8.646 214.600 M387.446 215.800 C 387.446 216.185,387.488 216.343,387.538 216.150 C 387.588 215.957,387.588 215.643,387.538 215.450 C 387.488 215.257,387.446 215.415,387.446 215.800 M8.846 217.200 C 8.846 217.585,8.888 217.743,8.938 217.550 C 8.988 217.357,8.988 217.043,8.938 216.850 C 8.888 216.657,8.846 216.815,8.846 217.200 M204.666 266.750 C 214.767 266.779,231.237 266.779,241.266 266.750 C 251.295 266.721,243.030 266.698,222.900 266.698 C 202.770 266.698,194.565 266.721,204.666 266.750 M109.846 283.600 C 109.846 283.985,109.888 284.143,109.938 283.950 C 109.988 283.757,109.988 283.443,109.938 283.250 C 109.888 283.058,109.846 283.215,109.846 283.600 M80.000 305.100 C 80.373 305.485,80.723 305.800,80.778 305.800 C 80.833 305.800,80.573 305.485,80.200 305.100 C 79.827 304.715,79.477 304.400,79.422 304.400 C 79.367 304.400,79.627 304.715,80.000 305.100 M314.800 306.500 C 314.314 306.995,313.962 307.400,314.017 307.400 C 314.072 307.400,314.514 306.995,315.000 306.500 C 315.486 306.005,315.838 305.600,315.783 305.600 C 315.728 305.600,315.286 306.005,314.800 306.500 M85.400 310.700 C 87.433 312.735,89.141 314.400,89.196 314.400 C 89.251 314.400,87.633 312.735,85.600 310.700 C 83.567 308.665,81.859 307.000,81.804 307.000 C 81.749 307.000,83.367 308.665,85.400 310.700 M310.687 310.850 L 310.100 311.500 310.750 310.913 C 311.356 310.365,311.492 310.200,311.337 310.200 C 311.303 310.200,311.010 310.493,310.687 310.850 M306.491 314.850 L 305.700 315.700 306.550 314.909 C 307.340 314.174,307.492 314.000,307.341 314.000 C 307.308 314.000,306.925 314.382,306.491 314.850 M91.200 316.300 C 91.573 316.685,91.923 317.000,91.978 317.000 C 92.033 317.000,91.773 316.685,91.400 316.300 C 91.027 315.915,90.677 315.600,90.622 315.600 C 90.567 315.600,90.827 315.915,91.200 316.300 M55.600 324.263 C 55.600 324.297,55.892 324.590,56.250 324.913 L 56.900 325.500 56.313 324.850 C 55.765 324.244,55.600 324.108,55.600 324.263 M338.891 326.050 L 338.100 326.900 338.950 326.109 C 339.740 325.374,339.892 325.200,339.741 325.200 C 339.708 325.200,339.325 325.582,338.891 326.050 M58.392 327.250 C 58.882 327.773,59.310 328.200,59.342 328.200 C 59.492 328.200,59.333 328.020,58.450 327.192 L 57.500 326.300 58.392 327.250 M335.400 329.700 C 334.581 330.525,333.955 331.200,334.010 331.200 C 334.065 331.200,334.781 330.525,335.600 329.700 C 336.419 328.875,337.045 328.200,336.990 328.200 C 336.935 328.200,336.219 328.875,335.400 329.700 M63.400 332.500 C 64.661 333.765,65.738 334.800,65.793 334.800 C 65.848 334.800,64.861 333.765,63.600 332.500 C 62.339 331.235,61.262 330.200,61.207 330.200 C 61.152 330.200,62.139 331.235,63.400 332.500 M329.600 335.500 C 328.781 336.325,328.155 337.000,328.210 337.000 C 328.265 337.000,328.981 336.325,329.800 335.500 C 330.619 334.675,331.245 334.000,331.190 334.000 C 331.135 334.000,330.419 334.675,329.600 335.500 M68.792 337.650 C 69.282 338.173,69.710 338.600,69.742 338.600 C 69.892 338.600,69.733 338.420,68.850 337.592 L 67.900 336.700 68.792 337.650 M325.891 339.050 L 325.100 339.900 325.950 339.109 C 326.740 338.374,326.892 338.200,326.741 338.200 C 326.708 338.200,326.325 338.582,325.891 339.050 M191.050 344.738 C 191.243 344.788,191.558 344.788,191.750 344.738 C 191.942 344.688,191.785 344.646,191.400 344.646 C 191.015 344.646,190.858 344.688,191.050 344.738 M204.450 344.738 C 204.643 344.788,204.957 344.788,205.150 344.738 C 205.343 344.688,205.185 344.646,204.800 344.646 C 204.415 344.646,204.258 344.688,204.450 344.738 M184.050 356.938 C 184.243 356.988,184.558 356.988,184.750 356.938 C 184.942 356.888,184.785 356.846,184.400 356.846 C 184.015 356.846,183.858 356.888,184.050 356.938 M211.650 356.938 C 211.843 356.988,212.157 356.988,212.350 356.938 C 212.543 356.888,212.385 356.846,212.000 356.846 C 211.615 356.846,211.457 356.888,211.650 356.938 M186.853 357.144 C 187.157 357.189,187.607 357.188,187.853 357.141 C 188.099 357.093,187.850 357.056,187.300 357.057 C 186.750 357.059,186.549 357.098,186.853 357.144 M208.653 357.144 C 208.957 357.189,209.407 357.188,209.653 357.141 C 209.899 357.093,209.650 357.056,209.100 357.057 C 208.550 357.059,208.349 357.098,208.653 357.144 M190.555 357.347 C 191.026 357.389,191.746 357.388,192.155 357.345 C 192.565 357.302,192.180 357.268,191.300 357.269 C 190.420 357.269,190.085 357.304,190.555 357.347 M204.250 357.346 C 204.663 357.389,205.338 357.389,205.750 357.346 C 206.163 357.303,205.825 357.267,205.000 357.267 C 204.175 357.267,203.838 357.303,204.250 357.346 M180.250 387.538 C 180.442 387.588,180.758 387.588,180.950 387.538 C 181.143 387.488,180.985 387.446,180.600 387.446 C 180.215 387.446,180.058 387.488,180.250 387.538 M215.450 387.538 C 215.643 387.588,215.957 387.588,216.150 387.538 C 216.343 387.488,216.185 387.446,215.800 387.446 C 215.415 387.446,215.257 387.488,215.450 387.538 M182.752 387.741 C 183.001 387.789,183.361 387.787,183.552 387.737 C 183.744 387.687,183.540 387.648,183.100 387.650 C 182.660 387.653,182.504 387.694,182.752 387.741 M212.850 387.738 C 213.043 387.788,213.357 387.788,213.550 387.738 C 213.743 387.688,213.585 387.646,213.200 387.646 C 212.815 387.646,212.657 387.688,212.850 387.738 M186.150 387.941 C 186.398 387.989,186.803 387.989,187.050 387.941 C 187.298 387.893,187.095 387.854,186.600 387.854 C 186.105 387.854,185.903 387.893,186.150 387.941 M209.550 387.941 C 209.798 387.989,210.203 387.989,210.450 387.941 C 210.697 387.893,210.495 387.854,210.000 387.854 C 209.505 387.854,209.303 387.893,209.550 387.941 M190.250 388.146 C 190.663 388.189,191.338 388.189,191.750 388.146 C 192.163 388.103,191.825 388.067,191.000 388.067 C 190.175 388.067,189.838 388.103,190.250 388.146 M204.555 388.147 C 205.026 388.189,205.746 388.188,206.155 388.145 C 206.565 388.102,206.180 388.068,205.300 388.069 C 204.420 388.069,204.085 388.104,204.555 388.147 " stroke="none" fill="#6a6a69" fill-rule="evenodd"></path><path id="path4" d="M191.100 51.628 C 121.512 54.872,63.388 107.332,53.110 176.171 C 39.986 264.073,106.727 343.084,195.500 344.737 C 284.076 346.386,353.785 269.752,343.894 181.600 C 335.287 104.898,268.426 48.023,191.100 51.628 M211.600 100.202 C 223.030 101.522,228.814 107.149,228.814 116.949 C 228.814 124.648,224.793 130.222,217.602 132.488 C 213.484 133.787,212.720 133.846,198.950 133.943 L 186.400 134.031 186.400 200.316 L 186.400 266.600 222.887 266.600 L 259.374 266.600 259.457 248.350 C 259.544 229.436,259.568 228.856,260.432 225.100 C 262.459 216.286,268.357 211.720,277.280 212.058 C 284.898 212.347,290.163 216.497,292.174 223.800 C 293.345 228.054,293.271 225.436,293.344 264.753 L 293.410 300.807 210.555 300.741 C 119.311 300.668,126.828 300.774,122.039 299.499 C 107.097 295.522,105.388 274.688,119.521 268.804 C 123.836 267.008,125.965 266.787,140.250 266.658 L 152.200 266.550 152.200 200.275 L 152.200 134.000 141.250 134.000 C 127.483 134.000,124.454 133.730,120.170 132.120 C 113.049 129.446,109.196 122.929,110.015 114.947 C 110.926 106.067,116.940 101.070,128.100 99.919 C 130.024 99.721,209.772 99.991,211.600 100.202 " stroke="none" fill="#e51b4d" fill-rule="evenodd"></path></g></svg>